<?xml version="1.0" standalone="no"?>
<!DOCTYPE svg PUBLIC "-//W3C//DTD SVG 20010904//EN"
 "http://www.w3.org/TR/2001/REC-SVG-20010904/DTD/svg10.dtd">
<svg version="1.0" xmlns="http://www.w3.org/2000/svg"
 width="700.000000pt" height="700.000000pt" viewBox="0 0 700.000000 700.000000"
 preserveAspectRatio="xMidYMid meet">
<metadata>
Created by potrace 1.14, written by Peter Selinger 2001-2017
</metadata>
<g transform="translate(0.000000,700.000000) scale(0.100000,-0.100000)"
fill="#000000" stroke="none">
<path d="M4659 6996 c-2 -2 -35 -7 -74 -10 -38 -4 -81 -8 -95 -11 -14 -2 -41
-6 -60 -9 -253 -40 -500 -122 -794 -263 -258 -125 -315 -143 -426 -138 -92 4
-163 24 -484 134 -99 34 -204 69 -235 77 -144 40 -242 65 -311 79 -41 8 -86
18 -100 20 -14 3 -43 8 -65 11 -22 3 -50 7 -62 9 -92 20 -472 27 -601 12 -170
-20 -368 -78 -516 -153 -146 -74 -253 -151 -376 -274 -270 -268 -411 -530
-447 -827 -15 -121 -7 -370 17 -518 6 -38 13 -83 16 -100 7 -47 28 -153 39
-195 3 -11 7 -28 9 -37 2 -10 7 -31 11 -48 17 -69 81 -257 121 -353 198 -472
570 -914 1109 -1316 386 -289 693 -456 836 -456 127 0 203 122 139 226 -35 56
-165 169 -375 327 -110 82 -202 153 -205 156 -3 3 -25 24 -50 45 -157 136
-327 319 -453 486 -31 41 -60 80 -64 85 -80 103 -206 328 -303 540 -21 44 -59
155 -83 240 -46 162 -61 279 -60 460 1 221 15 272 107 384 327 399 615 507
1089 410 55 -11 109 -24 119 -30 10 -5 18 -8 18 -5 0 4 178 -55 340 -114 63
-23 135 -48 160 -57 25 -8 54 -18 65 -23 80 -35 269 -87 375 -104 161 -26 280
-4 619 114 331 115 490 163 601 183 37 7 91 16 124 22 112 18 514 26 680 14
121 -9 198 -29 296 -79 295 -147 486 -349 609 -645 40 -95 110 -309 126 -385
2 -8 11 -46 20 -85 35 -149 26 -233 -49 -459 -98 -290 -312 -655 -552 -936
-323 -379 -685 -712 -1100 -1012 -89 -65 -322 -223 -356 -243 -10 -5 -62 -38
-115 -71 -54 -34 -120 -74 -148 -89 -27 -15 -68 -38 -90 -51 -115 -66 -806
-415 -985 -497 -30 -14 -104 -48 -165 -77 -60 -29 -148 -70 -195 -92 -150 -71
-473 -234 -530 -268 -30 -18 -95 -74 -145 -125 -116 -120 -152 -159 -140 -153
6 3 51 9 101 13 73 5 101 3 140 -10 82 -28 186 -8 487 94 152 51 417 149 502
186 17 7 82 34 145 60 388 160 833 378 1184 582 173 100 420 254 424 265 2 4
8 8 13 8 6 0 47 26 92 57 45 31 111 77 147 101 164 114 451 341 619 489 85 75
412 400 481 478 54 60 172 202 220 265 19 25 39 50 43 55 5 6 45 62 89 125
110 158 193 299 291 492 176 345 223 500 244 810 12 180 5 534 -12 598 -2 8
-7 38 -10 65 -3 28 -7 59 -9 70 -2 11 -12 56 -21 100 -38 188 -124 438 -189
554 -18 31 -35 63 -38 71 -3 8 -31 50 -61 93 -62 89 -148 182 -227 247 -30 25
-57 47 -60 50 -9 10 -124 84 -160 104 -19 10 -54 29 -77 42 -22 12 -92 43
-155 67 -98 38 -136 51 -183 62 -5 2 -37 10 -70 18 -59 15 -190 41 -270 52
-47 7 -510 17 -516 11z"/>
</g>
</svg>
