<svg class="h-6 sm:h-8 xl:h-12 sm:mt-2" version="1.1" viewBox="0 0 8 8" xmlns="http://www.w3.org/2000/svg">
    <g transform="translate(-105.77 -147.51)">
    <path d="m107.81 154.52c0.0364-0.0376 0.46798-0.25452 0.95911-0.48205 0.49113-0.22752 1.1104-0.5417 1.3761-0.69816 1.3322-0.78442 2.3456-1.8509 2.6369-2.7749 0.10423-0.33066 0.10402-0.377-3e-3 -0.7674-0.15175-0.55137-0.36756-0.86481-0.75037-1.0898-0.28133-0.16536-0.37686-0.1851-0.87792-0.18138-0.46173 3e-3 -0.67396 0.0437-1.1872 0.22514-0.69083 0.24424-0.61982 0.2484-1.5578-0.0913-0.79461-0.28776-1.2584-0.21097-1.7032 0.282-0.23108 0.25608-0.24805 0.30328-0.24805 0.68998 0 0.76052 0.59501 1.7369 1.4151 2.3221 0.24033 0.17149 0.43695 0.34207 0.43695 0.37906 0 0.21485-1.0165-0.43425-1.5302-0.9771-0.46842-0.49503-0.70962-0.96747-0.8217-1.6095-0.1225-0.70169-0.0288-1.063 0.392-1.5114 0.54435-0.58005 1.3903-0.65757 2.5632-0.23487 0.55818 0.20116 0.62088 0.19879 1.0906-0.0413 1.0627-0.54307 2.4147-0.3756 2.9425 0.36449 0.26496 0.37152 0.41261 1.0055 0.37709 1.619-0.0247 0.42673-0.0694 0.57579-0.31256 1.0432-0.65 1.2494-2.1513 2.4306-4.0932 3.2206-0.73475 0.29888-1.2242 0.43789-1.1038 0.31353z" fill="#fe4110" stroke="#fe4110" stroke-width=".26458"/>
    </g>
</svg>